<mxfile host="65bd71144e">
    <diagram name="Page-1" id="c37626ed-c26b-45fb-9056-f9ebc6bb27b6">
        <mxGraphModel dx="1204" dy="790" grid="1" gridSize="10" guides="1" tooltips="1" connect="1" arrows="1" fold="1" page="1" pageScale="1" pageWidth="1100" pageHeight="850" background="none" math="0" shadow="0">
            <root>
                <mxCell id="0"/>
                <mxCell id="1" parent="0"/>
                <mxCell id="nPgz_P1dPb5N0Rl0QCjo-1" value="i" style="ellipse;whiteSpace=wrap;html=1;aspect=fixed;shadow=0;sketch=0;" parent="1" vertex="1">
                    <mxGeometry x="485" y="250" width="130" height="130" as="geometry"/>
                </mxCell>
            </root>
        </mxGraphModel>
    </diagram>
    <diagram id="8DK2omigD9w6AlY_a2ba" name="Страница 2">
        <mxGraphModel dx="1204" dy="790" grid="1" gridSize="10" guides="1" tooltips="1" connect="1" arrows="1" fold="1" page="1" pageScale="1" pageWidth="827" pageHeight="1169" math="0" shadow="0">
            <root>
                <mxCell id="6KjK6i4TNeIxf64NpvG5-0"/>
                <mxCell id="6KjK6i4TNeIxf64NpvG5-1" parent="6KjK6i4TNeIxf64NpvG5-0"/>
            </root>
        </mxGraphModel>
    </diagram>
</mxfile>